REM DIRINDEX 1\2\5,1\2\6,1\2\7,1\2\8,1\3\9,1\3\10,1\3\11,1\4\12,1\4\13,1\4\14,1\4\15,1\4\16
REM DIRNAME folder01,folder02,folder03,folder04,folder05,folder06,folder07,folder08,folder09,folder10,folder11,folder12,folder13,folder14,folder15,folder16
TITLE ""
FILE "1200_2_sec03_0907_0924.mp3" MP3
  TRACK 01 AUDIO
    TITLE "0:"
    INDEX 01 00:00:00
  TRACK 02 AUDIO
    TITLE "10:cjc034_01868"
    INDEX 01 00:00:15
  TRACK 03 AUDIO
    TITLE "0:"
    INDEX 01 00:02:22
  TRACK 04 AUDIO
    TITLE "9:cjc034_01869"
    INDEX 01 00:02:26
  TRACK 05 AUDIO
    TITLE "0:"
    INDEX 01 00:03:33
  TRACK 06 AUDIO
    TITLE "10:cjc034_01870"
    INDEX 01 00:04:13
  TRACK 07 AUDIO
    TITLE "0:"
    INDEX 01 00:06:37
  TRACK 08 AUDIO
    TITLE "9:cjc034_01871"
    INDEX 01 00:06:39
  TRACK 09 AUDIO
    TITLE "0:"
    INDEX 01 00:07:45
  TRACK 10 AUDIO
    TITLE "10:cjc034_01872"
    INDEX 01 00:08:32
  TRACK 11 AUDIO
    TITLE "0:"
    INDEX 01 00:09:51
  TRACK 12 AUDIO
    TITLE "9:cjc034_01873"
    INDEX 01 00:09:55
  TRACK 13 AUDIO
    TITLE "0:"
    INDEX 01 00:10:57
  TRACK 14 AUDIO
    TITLE "10:cjc034_01874"
    INDEX 01 00:11:40
  TRACK 15 AUDIO
    TITLE "0:"
    INDEX 01 00:12:40
  TRACK 16 AUDIO
    TITLE "9:cjc034_01875"
    INDEX 01 00:12:46
  TRACK 17 AUDIO
    TITLE "0:"
    INDEX 01 00:13:65
  TRACK 18 AUDIO
    TITLE "11:cjc034_01876"
    INDEX 01 00:15:36
  TRACK 19 AUDIO
    TITLE "0:"
    INDEX 01 00:20:06
  TRACK 20 AUDIO
    TITLE "10:cjc034_01877"
    INDEX 01 00:21:11
  TRACK 21 AUDIO
    TITLE "0:"
    INDEX 01 00:22:32
  TRACK 22 AUDIO
    TITLE "9:cjc034_01878"
    INDEX 01 00:22:42
  TRACK 23 AUDIO
    TITLE "0:"
    INDEX 01 00:23:48
  TRACK 24 AUDIO
    TITLE "10:cjc034_01879"
    INDEX 01 00:24:33
  TRACK 25 AUDIO
    TITLE "0:"
    INDEX 01 00:25:39
  TRACK 26 AUDIO
    TITLE "9:cjc034_01880"
    INDEX 01 00:25:48
  TRACK 27 AUDIO
    TITLE "0:"
    INDEX 01 00:26:58
  TRACK 28 AUDIO
    TITLE "10:cjc034_01881"
    INDEX 01 00:27:41
  TRACK 29 AUDIO
    TITLE "0:"
    INDEX 01 00:28:37
  TRACK 30 AUDIO
    TITLE "9:cjc034_01882"
    INDEX 01 00:28:45
  TRACK 31 AUDIO
    TITLE "0:"
    INDEX 01 00:29:56
  TRACK 32 AUDIO
    TITLE "10:cjc034_01883"
    INDEX 01 00:30:34
  TRACK 33 AUDIO
    TITLE "0:"
    INDEX 01 00:31:69
  TRACK 34 AUDIO
    TITLE "9:cjc034_01884"
    INDEX 01 00:32:00
  TRACK 35 AUDIO
    TITLE "0:"
    INDEX 01 00:33:05
  TRACK 36 AUDIO
    TITLE "10:cjc034_01885"
    INDEX 01 00:33:66
  TRACK 37 AUDIO
    TITLE "0:"
    INDEX 01 00:34:69
  TRACK 38 AUDIO
    TITLE "9:cjc034_01886"
    INDEX 01 00:35:04
  TRACK 39 AUDIO
    TITLE "0:"
    INDEX 01 00:36:13
  TRACK 40 AUDIO
    TITLE "10:cjc034_01887"
    INDEX 01 00:36:70
  TRACK 41 AUDIO
    TITLE "0:"
    INDEX 01 00:38:67
  TRACK 42 AUDIO
    TITLE "9:cjc034_01888"
    INDEX 01 00:39:00
  TRACK 43 AUDIO
    TITLE "0:"
    INDEX 01 00:40:26
  TRACK 44 AUDIO
    TITLE "10:cjc034_01889"
    INDEX 01 00:41:08
  TRACK 45 AUDIO
    TITLE "0:"
    INDEX 01 00:42:47
  TRACK 46 AUDIO
    TITLE "9:cjc034_01890"
    INDEX 01 00:42:53
  TRACK 47 AUDIO
    TITLE "0:"
    INDEX 01 00:43:66
  TRACK 48 AUDIO
    TITLE "10:cjc034_01891"
    INDEX 01 00:44:46
  TRACK 49 AUDIO
    TITLE "0:"
    INDEX 01 00:45:61
  TRACK 50 AUDIO
    TITLE "9:cjc034_01892"
    INDEX 01 00:45:67
  TRACK 51 AUDIO
    TITLE "0:"
    INDEX 01 00:47:09
  TRACK 52 AUDIO
    TITLE "10:cjc034_01893"
    INDEX 01 00:47:70
  TRACK 53 AUDIO
    TITLE "0:"
    INDEX 01 00:49:18
  TRACK 54 AUDIO
    TITLE "9:cjc034_01894"
    INDEX 01 00:49:23
  TRACK 55 AUDIO
    TITLE "0:"
    INDEX 01 00:50:25
  TRACK 56 AUDIO
    TITLE "10:cjc034_01895"
    INDEX 01 00:51:11
  TRACK 57 AUDIO
    TITLE "0:"
    INDEX 01 00:52:22
  TRACK 58 AUDIO
    TITLE "9:cjc034_01896"
    INDEX 01 00:52:26
  TRACK 59 AUDIO
    TITLE "0:"
    INDEX 01 00:53:35
  TRACK 60 AUDIO
    TITLE "10:cjc034_01897"
    INDEX 01 00:54:19
  TRACK 61 AUDIO
    TITLE "0:"
    INDEX 01 00:56:27
  TRACK 62 AUDIO
    TITLE "9:cjc034_01898"
    INDEX 01 00:56:29
  TRACK 63 AUDIO
    TITLE "0:"
    INDEX 01 00:57:33
  TRACK 64 AUDIO
    TITLE "11:cjc034_01899"
    INDEX 01 00:59:08
  TRACK 65 AUDIO
    TITLE "0:"
    INDEX 01 01:02:50
  TRACK 66 AUDIO
    TITLE "10:cjc034_01900"
    INDEX 01 01:03:59
  TRACK 67 AUDIO
    TITLE "0:"
    INDEX 01 01:04:58
  TRACK 68 AUDIO
    TITLE "9:cjc034_01901"
    INDEX 01 01:04:68
  TRACK 69 AUDIO
    TITLE "0:"
    INDEX 01 01:06:08
  TRACK 70 AUDIO
    TITLE "10:cjc034_01902"
    INDEX 01 01:06:65
  TRACK 71 AUDIO
    TITLE "0:"
    INDEX 01 01:08:54
  TRACK 72 AUDIO
    TITLE "9:cjc034_01903"
    INDEX 01 01:08:58
  TRACK 73 AUDIO
    TITLE "0:"
    INDEX 01 01:10:00
  TRACK 74 AUDIO
    TITLE "10:cjc034_01904"
    INDEX 01 01:10:57
  TRACK 75 AUDIO
    TITLE "0:"
    INDEX 01 01:11:43
  TRACK 76 AUDIO
    TITLE "9:cjc034_01905"
    INDEX 01 01:11:47
  TRACK 77 AUDIO
    TITLE "0:"
    INDEX 01 01:12:50
